<svg xmlns="http://www.w3.org/2000/svg" width="19" height="19" viewBox="0 0 19 19">
  <path id="instagram" d="M14.547,19H4.453A4.458,4.458,0,0,1,0,14.547V4.453A4.458,4.458,0,0,1,4.453,0H14.547A4.458,4.458,0,0,1,19,4.453V14.547A4.458,4.458,0,0,1,14.547,19ZM4.453,1.484A2.972,2.972,0,0,0,1.484,4.453V14.547a2.972,2.972,0,0,0,2.969,2.969H14.547a2.972,2.972,0,0,0,2.969-2.969V4.453a2.972,2.972,0,0,0-2.969-2.969ZM14.732,3.34a.928.928,0,1,0,.928.928A.928.928,0,0,0,14.732,3.34ZM9.5,14.324A4.824,4.824,0,1,1,14.324,9.5,4.83,4.83,0,0,1,9.5,14.324Zm0-8.164A3.34,3.34,0,1,0,12.84,9.5,3.344,3.344,0,0,0,9.5,6.16Z" fill="#95989a"/>
</svg>
